<svg xmlns="http://www.w3.org/2000/svg" viewBox="0 0 64 64" role="img" aria-label="Discrope icon">
  <defs>
    <linearGradient id="bg" x1="0" y1="0" x2="1" y2="1">
      <stop offset="0%" stop-color="#1f2330" />
      <stop offset="100%" stop-color="#141822" />
    </linearGradient>
    <linearGradient id="mark" x1="0" y1="0" x2="1" y2="1">
      <stop offset="0%" stop-color="#7ba7ff" />
      <stop offset="100%" stop-color="#4f73ff" />
    </linearGradient>
  </defs>

  <rect x="2" y="2" width="60" height="60" rx="18" fill="url(#bg)" />

  <!-- Discord-like chat badge silhouette -->
  <path d="M16 24c0-7 6-12 16-12s16 5 16 12v12c0 7-6 12-16 12h-5l-7 4 2-6c-4-2-6-6-6-10V24z" fill="url(#mark)" />

  <!-- Rope loop + knot, hinting at 'Discrope' -->
  <path d="M24 34c0-5.2 4.2-9.4 9.4-9.4 5.2 0 9.4 4.2 9.4 9.4" fill="none" stroke="#f4f7ff" stroke-width="3.6" stroke-linecap="round" />
  <path d="M28 38l5.4-5.2L39 38" fill="none" stroke="#f4f7ff" stroke-width="3.6" stroke-linecap="round" stroke-linejoin="round" />
  <circle cx="27" cy="28" r="2" fill="#dbe6ff" />
  <circle cx="39" cy="28" r="2" fill="#dbe6ff" />
</svg>
